<svg xmlns="http://www.w3.org/2000/svg" viewBox="0 0 900 600">
  <defs>
    <linearGradient id="pageGrad" x1="0%" y1="0%" x2="100%" y2="100%">
      <stop offset="0%" style="stop-color:#8B5CF6;stop-opacity:1" />
      <stop offset="100%" style="stop-color:#7C3AED;stop-opacity:1" />
    </linearGradient>
    <linearGradient id="compGrad" x1="0%" y1="0%" x2="100%" y2="100%">
      <stop offset="0%" style="stop-color:#06B6D4;stop-opacity:1" />
      <stop offset="100%" style="stop-color:#0891B2;stop-opacity:1" />
    </linearGradient>
    <linearGradient id="uiGrad" x1="0%" y1="0%" x2="100%" y2="100%">
      <stop offset="0%" style="stop-color:#10B981;stop-opacity:1" />
      <stop offset="100%" style="stop-color:#059669;stop-opacity:1" />
    </linearGradient>
    <linearGradient id="providerGrad" x1="0%" y1="0%" x2="100%" y2="100%">
      <stop offset="0%" style="stop-color:#F59E0B;stop-opacity:1" />
      <stop offset="100%" style="stop-color:#D97706;stop-opacity:1" />
    </linearGradient>
  </defs>
  
  <!-- Background -->
  <rect width="900" height="600" fill="#0F0A1F"/>
  
  <!-- Title -->
  <text x="450" y="30" fill="#FFFFFF" font-family="system-ui, sans-serif" font-size="18" font-weight="bold" text-anchor="middle">React Component Hierarchy</text>
  
  <!-- Root: App.tsx -->
  <rect x="375" y="50" width="150" height="40" rx="6" fill="#1E1534" stroke="#FFFFFF" stroke-width="2"/>
  <text x="450" y="75" fill="#FFFFFF" font-family="system-ui, sans-serif" font-size="12" font-weight="bold" text-anchor="middle">App.tsx</text>
  
  <!-- Providers Layer -->
  <rect x="50" y="115" width="800" height="55" rx="6" fill="#1E1534" stroke="#F59E0B" stroke-width="1" stroke-dasharray="4,2"/>
  <text x="70" y="135" fill="#F59E0B" font-family="system-ui, sans-serif" font-size="10" font-weight="bold">PROVIDERS</text>
  
  <rect x="70" y="140" width="100" height="25" rx="4" fill="url(#providerGrad)"/>
  <text x="120" y="157" fill="#FFFFFF" font-family="system-ui, sans-serif" font-size="9" text-anchor="middle">QueryClient</text>
  
  <rect x="185" y="140" width="100" height="25" rx="4" fill="url(#providerGrad)"/>
  <text x="235" y="157" fill="#FFFFFF" font-family="system-ui, sans-serif" font-size="9" text-anchor="middle">ThemeProvider</text>
  
  <rect x="300" y="140" width="100" height="25" rx="4" fill="url(#providerGrad)"/>
  <text x="350" y="157" fill="#FFFFFF" font-family="system-ui, sans-serif" font-size="9" text-anchor="middle">AuthProvider</text>
  
  <rect x="415" y="140" width="100" height="25" rx="4" fill="url(#providerGrad)"/>
  <text x="465" y="157" fill="#FFFFFF" font-family="system-ui, sans-serif" font-size="9" text-anchor="middle">BrowserRouter</text>
  
  <rect x="530" y="140" width="100" height="25" rx="4" fill="url(#providerGrad)"/>
  <text x="580" y="157" fill="#FFFFFF" font-family="system-ui, sans-serif" font-size="9" text-anchor="middle">Toaster</text>
  
  <!-- Routes Layer -->
  <rect x="50" y="190" width="800" height="90" rx="6" fill="#1E1534" stroke="#8B5CF6" stroke-width="1" stroke-dasharray="4,2"/>
  <text x="70" y="210" fill="#8B5CF6" font-family="system-ui, sans-serif" font-size="10" font-weight="bold">PAGES (Routes)</text>
  
  <rect x="70" y="220" width="80" height="50" rx="4" fill="url(#pageGrad)"/>
  <text x="110" y="240" fill="#FFFFFF" font-family="system-ui, sans-serif" font-size="9" text-anchor="middle">Landing</text>
  <text x="110" y="255" fill="#E0E0E0" font-family="system-ui, sans-serif" font-size="8" text-anchor="middle">/</text>
  
  <rect x="165" y="220" width="80" height="50" rx="4" fill="url(#pageGrad)"/>
  <text x="205" y="240" fill="#FFFFFF" font-family="system-ui, sans-serif" font-size="9" text-anchor="middle">Portfolio</text>
  <text x="205" y="255" fill="#E0E0E0" font-family="system-ui, sans-serif" font-size="8" text-anchor="middle">/portfolio</text>
  
  <rect x="260" y="220" width="80" height="50" rx="4" fill="url(#pageGrad)"/>
  <text x="300" y="240" fill="#FFFFFF" font-family="system-ui, sans-serif" font-size="9" text-anchor="middle">ProjectsHub</text>
  <text x="300" y="255" fill="#E0E0E0" font-family="system-ui, sans-serif" font-size="8" text-anchor="middle">/projects</text>
  
  <rect x="355" y="220" width="80" height="50" rx="4" fill="url(#pageGrad)"/>
  <text x="395" y="240" fill="#FFFFFF" font-family="system-ui, sans-serif" font-size="9" text-anchor="middle">Studios</text>
  <text x="395" y="255" fill="#E0E0E0" font-family="system-ui, sans-serif" font-size="8" text-anchor="middle">/studios</text>
  
  <rect x="450" y="220" width="80" height="50" rx="4" fill="url(#pageGrad)"/>
  <text x="490" y="240" fill="#FFFFFF" font-family="system-ui, sans-serif" font-size="9" text-anchor="middle">Services</text>
  <text x="490" y="255" fill="#E0E0E0" font-family="system-ui, sans-serif" font-size="8" text-anchor="middle">/services</text>
  
  <rect x="545" y="220" width="80" height="50" rx="4" fill="url(#pageGrad)"/>
  <text x="585" y="240" fill="#FFFFFF" font-family="system-ui, sans-serif" font-size="9" text-anchor="middle">Auth</text>
  <text x="585" y="255" fill="#E0E0E0" font-family="system-ui, sans-serif" font-size="8" text-anchor="middle">/auth</text>
  
  <rect x="640" y="220" width="80" height="50" rx="4" fill="url(#pageGrad)"/>
  <text x="680" y="240" fill="#FFFFFF" font-family="system-ui, sans-serif" font-size="9" text-anchor="middle">Profile</text>
  <text x="680" y="255" fill="#E0E0E0" font-family="system-ui, sans-serif" font-size="8" text-anchor="middle">/profile</text>
  
  <rect x="735" y="220" width="100" height="50" rx="4" fill="url(#pageGrad)"/>
  <text x="785" y="240" fill="#FFFFFF" font-family="system-ui, sans-serif" font-size="9" text-anchor="middle">DesignSystem</text>
  <text x="785" y="255" fill="#E0E0E0" font-family="system-ui, sans-serif" font-size="8" text-anchor="middle">/design-system</text>
  
  <!-- Platform Dashboards -->
  <rect x="50" y="300" width="400" height="80" rx="6" fill="#1E1534" stroke="#06B6D4" stroke-width="1" stroke-dasharray="4,2"/>
  <text x="70" y="320" fill="#06B6D4" font-family="system-ui, sans-serif" font-size="10" font-weight="bold">PLATFORM DASHBOARDS</text>
  
  <rect x="70" y="335" width="65" height="35" rx="4" fill="url(#compGrad)"/>
  <text x="102" y="357" fill="#FFFFFF" font-family="system-ui, sans-serif" font-size="9" text-anchor="middle">SimCore</text>
  
  <rect x="145" y="335" width="65" height="35" rx="4" fill="url(#compGrad)"/>
  <text x="177" y="357" fill="#FFFFFF" font-family="system-ui, sans-serif" font-size="9" text-anchor="middle">MEZAN</text>
  
  <rect x="220" y="335" width="65" height="35" rx="4" fill="url(#compGrad)"/>
  <text x="252" y="357" fill="#FFFFFF" font-family="system-ui, sans-serif" font-size="9" text-anchor="middle">TalAI</text>
  
  <rect x="295" y="335" width="70" height="35" rx="4" fill="url(#compGrad)"/>
  <text x="330" y="357" fill="#FFFFFF" font-family="system-ui, sans-serif" font-size="9" text-anchor="middle">OptiLibria</text>
  
  <rect x="375" y="335" width="65" height="35" rx="4" fill="url(#compGrad)"/>
  <text x="407" y="357" fill="#FFFFFF" font-family="system-ui, sans-serif" font-size="9" text-anchor="middle">QMLab</text>
  
  <!-- Shared Components -->
  <rect x="470" y="300" width="380" height="80" rx="6" fill="#1E1534" stroke="#10B981" stroke-width="1" stroke-dasharray="4,2"/>
  <text x="490" y="320" fill="#10B981" font-family="system-ui, sans-serif" font-size="10" font-weight="bold">SHARED COMPONENTS</text>
  
  <rect x="490" y="335" width="70" height="35" rx="4" fill="url(#uiGrad)"/>
  <text x="525" y="357" fill="#FFFFFF" font-family="system-ui, sans-serif" font-size="9" text-anchor="middle">Navigation</text>
  
  <rect x="570" y="335" width="70" height="35" rx="4" fill="url(#uiGrad)"/>
  <text x="605" y="357" fill="#FFFFFF" font-family="system-ui, sans-serif" font-size="9" text-anchor="middle">HubHeader</text>
  
  <rect x="650" y="335" width="70" height="35" rx="4" fill="url(#uiGrad)"/>
  <text x="685" y="357" fill="#FFFFFF" font-family="system-ui, sans-serif" font-size="9" text-anchor="middle">PageLayout</text>
  
  <rect x="730" y="335" width="70" height="35" rx="4" fill="url(#uiGrad)"/>
  <text x="765" y="357" fill="#FFFFFF" font-family="system-ui, sans-serif" font-size="9" text-anchor="middle">Footer</text>
  
  <!-- UI Components Layer -->
  <rect x="50" y="400" width="800" height="80" rx="6" fill="#1E1534" stroke="#10B981" stroke-width="1" stroke-dasharray="4,2"/>
  <text x="70" y="420" fill="#10B981" font-family="system-ui, sans-serif" font-size="10" font-weight="bold">UI COMPONENTS (Shadcn)</text>
  
  <rect x="70" y="435" width="55" height="35" rx="4" fill="url(#uiGrad)"/>
  <text x="97" y="457" fill="#FFFFFF" font-family="system-ui, sans-serif" font-size="9" text-anchor="middle">Button</text>
  
  <rect x="135" y="435" width="55" height="35" rx="4" fill="url(#uiGrad)"/>
  <text x="162" y="457" fill="#FFFFFF" font-family="system-ui, sans-serif" font-size="9" text-anchor="middle">Card</text>
  
  <rect x="200" y="435" width="55" height="35" rx="4" fill="url(#uiGrad)"/>
  <text x="227" y="457" fill="#FFFFFF" font-family="system-ui, sans-serif" font-size="9" text-anchor="middle">Dialog</text>
  
  <rect x="265" y="435" width="55" height="35" rx="4" fill="url(#uiGrad)"/>
  <text x="292" y="457" fill="#FFFFFF" font-family="system-ui, sans-serif" font-size="9" text-anchor="middle">Input</text>
  
  <rect x="330" y="435" width="55" height="35" rx="4" fill="url(#uiGrad)"/>
  <text x="357" y="457" fill="#FFFFFF" font-family="system-ui, sans-serif" font-size="9" text-anchor="middle">Select</text>
  
  <rect x="395" y="435" width="55" height="35" rx="4" fill="url(#uiGrad)"/>
  <text x="422" y="457" fill="#FFFFFF" font-family="system-ui, sans-serif" font-size="9" text-anchor="middle">Tabs</text>
  
  <rect x="460" y="435" width="55" height="35" rx="4" fill="url(#uiGrad)"/>
  <text x="487" y="457" fill="#FFFFFF" font-family="system-ui, sans-serif" font-size="9" text-anchor="middle">Table</text>
  
  <rect x="525" y="435" width="55" height="35" rx="4" fill="url(#uiGrad)"/>
  <text x="552" y="457" fill="#FFFFFF" font-family="system-ui, sans-serif" font-size="9" text-anchor="middle">Toast</text>
  
  <rect x="590" y="435" width="55" height="35" rx="4" fill="url(#uiGrad)"/>
  <text x="617" y="457" fill="#FFFFFF" font-family="system-ui, sans-serif" font-size="9" text-anchor="middle">Badge</text>
  
  <rect x="655" y="435" width="60" height="35" rx="4" fill="url(#uiGrad)"/>
  <text x="685" y="457" fill="#FFFFFF" font-family="system-ui, sans-serif" font-size="9" text-anchor="middle">Tooltip</text>
  
  <rect x="725" y="435" width="55" height="35" rx="4" fill="#1E1534" stroke="#10B981" stroke-width="1"/>
  <text x="752" y="457" fill="#10B981" font-family="system-ui, sans-serif" font-size="9" text-anchor="middle">+30</text>
  
  <!-- Hooks & Stores -->
  <rect x="50" y="500" width="380" height="80" rx="6" fill="#1E1534" stroke="#EC4899" stroke-width="1" stroke-dasharray="4,2"/>
  <text x="70" y="520" fill="#EC4899" font-family="system-ui, sans-serif" font-size="10" font-weight="bold">HOOKS</text>
  
  <rect x="70" y="535" width="75" height="35" rx="4" fill="#831843"/>
  <text x="107" y="557" fill="#FFFFFF" font-family="system-ui, sans-serif" font-size="9" text-anchor="middle">useAuth</text>
  
  <rect x="155" y="535" width="85" height="35" rx="4" fill="#831843"/>
  <text x="197" y="557" fill="#FFFFFF" font-family="system-ui, sans-serif" font-size="9" text-anchor="middle">useSimulations</text>
  
  <rect x="250" y="535" width="80" height="35" rx="4" fill="#831843"/>
  <text x="290" y="557" fill="#FFFFFF" font-family="system-ui, sans-serif" font-size="9" text-anchor="middle">useWorkflows</text>
  
  <rect x="340" y="535" width="80" height="35" rx="4" fill="#831843"/>
  <text x="380" y="557" fill="#FFFFFF" font-family="system-ui, sans-serif" font-size="9" text-anchor="middle">useMediaQuery</text>
  
  <!-- Stores -->
  <rect x="470" y="500" width="380" height="80" rx="6" fill="#1E1534" stroke="#F472B6" stroke-width="1" stroke-dasharray="4,2"/>
  <text x="490" y="520" fill="#F472B6" font-family="system-ui, sans-serif" font-size="10" font-weight="bold">ZUSTAND STORES</text>
  
  <rect x="490" y="535" width="80" height="35" rx="4" fill="#9D174D"/>
  <text x="530" y="557" fill="#FFFFFF" font-family="system-ui, sans-serif" font-size="9" text-anchor="middle">authStore</text>
  
  <rect x="580" y="535" width="100" height="35" rx="4" fill="#9D174D"/>
  <text x="630" y="557" fill="#FFFFFF" font-family="system-ui, sans-serif" font-size="9" text-anchor="middle">notificationStore</text>
  
  <rect x="690" y="535" width="90" height="35" rx="4" fill="#9D174D"/>
  <text x="735" y="557" fill="#FFFFFF" font-family="system-ui, sans-serif" font-size="9" text-anchor="middle">sessionLogStore</text>
  
  <!-- Connection lines -->
  <line x1="450" y1="90" x2="450" y2="115" stroke="#6B7280" stroke-width="1"/>
  <line x1="450" y1="170" x2="450" y2="190" stroke="#6B7280" stroke-width="1"/>
  <line x1="300" y1="280" x2="300" y2="300" stroke="#6B7280" stroke-width="1"/>
  <line x1="650" y1="280" x2="650" y2="300" stroke="#6B7280" stroke-width="1"/>
</svg>